# xmcd
#
# Track frame offsets: 
#        150
#        12902
#        27062
#        45347
#        64602
#        82880
#        102122
#
# Disc length: 1591 seconds
#
# Revision: 0
# Processed by: cddbd v1.5.2PL0 Copyright (c) Steve Scherf et al.
# Submitted via: ExactAudioCopyFreeDBPlugin 1.0
#
DISCID=40063507
DTITLE=Boyz II Men - It's So Hard To Say Goodbye To Yesterday (Promo C
DTITLE=D)
DYEAR=1900
DGENRE=
TTITLE0=It's So Hard To Say Goodbye To Yesterday (LP Version)
TTITLE1=It's So Hard To Say Goodbye To Yesterday (Radio)
TTITLE2=It's So Hard To Say Goodbye To Yesterday (Dedication)
TTITLE3=It's So Hard To Say Goodbye To Yesterday (Gospel)
TTITLE4=It's So Hard To Say Goodbye To Yesterday (Strings)
TTITLE5=It's So Hard To Say Goodbye To Yesterday (Full)
TTITLE6=It's So Hard To Say Goodbye To Yesterday (Accapella)
EXTD=
EXTT0=
EXTT1=
EXTT2=
EXTT3=
EXTT4=
EXTT5=
EXTT6=
PLAYORDER=
